<?xml version="1.0" encoding="UTF-8"?>
<!DOCTYPE svg PUBLIC "-//W3C//DTD SVG 1.1//EN" "http://www.w3.org/Graphics/SVG/1.1/DTD/svg11.dtd">
<svg xmlns="http://www.w3.org/2000/svg" version="1.1" width="5973px" height="5973px" style="shape-rendering:geometricPrecision; text-rendering:geometricPrecision; image-rendering:optimizeQuality; fill-rule:evenodd; clip-rule:evenodd" xmlns:xlink="http://www.w3.org/1999/xlink">
<g><path style="opacity:0.999" fill="#45ddc0" d="M 2979.5,994.5 C 2995.66,993.274 3009.66,998.107 3021.5,1009C 3669,1656.5 4316.5,2304 4964,2951.5C 4980.81,2972.44 4981.81,2994.1 4967,3016.5C 4316.83,3666.67 3666.67,4316.83 3016.5,4967C 2996.17,4981 2975.83,4981 2955.5,4967C 2305,4316.5 1654.5,3666 1004,3015.5C 990.263,2993.16 991.596,2971.83 1008,2951.5C 1655.5,2304 2303,1656.5 2950.5,1009C 2958.91,1001.46 2968.57,996.629 2979.5,994.5 Z M 1871.5,2478.5 C 1875.98,2478.54 1880.31,2479.37 1884.5,2481C 2188.1,2679.61 2491.44,2878.61 2794.5,3078C 2805.85,3086.67 2815.01,3097.17 2822,3109.5C 2869.76,3205.35 2917.76,3301.02 2966,3396.5C 2979.33,3407.17 2992.67,3407.17 3006,3396.5C 3054.24,3301.02 3102.24,3205.35 3150,3109.5C 3156.37,3099.46 3163.87,3090.3 3172.5,3082C 3474.5,2883.33 3776.5,2684.67 4078.5,2486C 4092.74,2475.38 4105.91,2476.55 4118,2489.5C 4122.63,2497.04 4123.63,2505.04 4121,2513.5C 3995.12,2759.92 3869.79,3006.58 3745,3253.5C 3742.29,3270.58 3749.12,3281.75 3765.5,3287C 3843.5,3287.33 3921.5,3287.67 3999.5,3288C 4012.41,3291.79 4019.41,3300.45 4020.5,3314C 4019.02,3323.95 4014.02,3331.62 4005.5,3337C 3670.32,3576.75 3335.32,3816.75 3000.5,4057C 2993.28,4061.51 2985.62,4062.51 2977.5,4060C 2962.49,4050.49 2947.82,4040.49 2933.5,4030C 2610.45,3797.95 2287.11,3566.28 1963.5,3335C 1950.15,3323.77 1948.31,3310.93 1958,3296.5C 1961.06,3293.39 1964.56,3290.89 1968.5,3289C 2047.46,3287.68 2126.46,3287.01 2205.5,3287C 2216.9,3284.6 2224.06,3277.77 2227,3266.5C 2227.67,3262.5 2227.67,3258.5 2227,3254.5C 2102.21,3007.58 1976.88,2760.92 1851,2514.5C 1846.16,2495.85 1852.99,2483.85 1871.5,2478.5 Z"/></g>
</svg>
