<?xml version="1.0" encoding="UTF-8"?>
<!DOCTYPE svg PUBLIC "-//W3C//DTD SVG 1.1//EN" "http://www.w3.org/Graphics/SVG/1.1/DTD/svg11.dtd">
<svg xmlns="http://www.w3.org/2000/svg" version="1.1" width="72px" height="72px" style="shape-rendering:geometricPrecision; text-rendering:geometricPrecision; image-rendering:optimizeQuality; fill-rule:evenodd; clip-rule:evenodd" xmlns:xlink="http://www.w3.org/1999/xlink">
<g><path style="opacity:0.983" fill="#1abb9b" d="M 28.5,8.5 C 45.0895,6.36864 56.2562,13.0353 62,28.5C 64.621,45.1032 58.121,56.2699 42.5,62C 25.8968,64.621 14.7301,58.121 9,42.5C 6.50413,25.8078 13.0041,14.4744 28.5,8.5 Z M 30.5,22.5 C 31.5,22.5 32.5,22.5 33.5,22.5C 33.1667,24.5 32.8333,26.5 32.5,28.5C 35.5,28.5 38.5,28.5 41.5,28.5C 40.5985,24.7593 41.9319,22.7593 45.5,22.5C 45.1667,24.5 44.8333,26.5 44.5,28.5C 46.6648,28.1159 48.3315,28.7826 49.5,30.5C 47.8273,32.0863 45.8273,32.7529 43.5,32.5C 43.6816,34.5914 43.3482,36.5914 42.5,38.5C 50.4328,40.2493 50.4328,41.7493 42.5,43C 40.1235,51.6866 38.7902,51.5199 38.5,42.5C 35.8127,42.3359 33.146,42.5026 30.5,43C 28.1235,51.6866 26.7902,51.5199 26.5,42.5C 25.1667,42.5 23.8333,42.5 22.5,42.5C 22.5,41.5 22.5,40.5 22.5,39.5C 24.1667,39.5 25.8333,39.5 27.5,39.5C 27.6741,37.139 28.0074,34.8056 28.5,32.5C 26.3352,32.8841 24.6685,32.2174 23.5,30.5C 25.0225,28.7175 27.0225,28.0508 29.5,28.5C 29.3253,26.3792 29.6586,24.3792 30.5,22.5 Z"/></g>
<g><path style="opacity:0.954" fill="#1abc9c" d="M 31.5,32.5 C 34.5,32.5 37.5,32.5 40.5,32.5C 40.0074,34.8056 39.6741,37.139 39.5,39.5C 36.4281,39.8174 33.4281,39.4841 30.5,38.5C 31.3482,36.5914 31.6816,34.5914 31.5,32.5 Z"/></g>
</svg>
